PathFileType	4	(X/Y/Z)	DARI_DATA/Captury_Subj4_bilateral_squat01.trc
DataRate	CameraRate	NumFrames	NumMarkers	Units	OrigDataRate	OrigDataStartFrame	OrigNumFrames
60	60	4	47	mm	60.00239944458008	85	226
Frame#	Time		LeftUpLeg_		RightUpLeg_		LeftLeg_		RightLeg_		LeftFoot_		RightFoot_		LeftToeBase_		RightToeBase_		Knee_Lateral_r		Knee_Lateral_l		Ankle_Lateral_r		Ankle_Lateral_l		LeftArm_		LeftForeArm_		LeftHand_		LeftHandEE		RightArm_		RightForeArm_		RightHand_		RightHandEE		Spine_		Spine1_		Spine2_		Spine3_		Spine4_		Spine5_		Spine_x		Spine_y		Spine_z		RASI		LASI		RIPS		LIPS		RTHI		LTHI		RTIB		LTIB		RTOE		LTOE		RHEE		LHEE		RHipAngles		LHipAngles		RKneeAngles		LKneeAngles		RAnkleAngles		LAnkleAngles
			X1	Y1	Z1	X2	Y2	Z2	X3	Y3	Z3	X4	Y4	Z4	X5	Y5	Z5	X6	Y6	Z6	X7	Y7	Z7	X8	Y8	Z8	X9	Y9	Z9	X10	Y10	Z10	X11	Y11	Z11	X12	Y12	Z12	X13	Y13	Z13	X14	Y14	Z14	X15	Y15	Z15	X16	Y16	Z16	X17	Y17	Z17	X18	Y18	Z18	X19	Y19	Z19	X20	Y20	Z20	X21	Y21	Z21	X22	Y22	Z22	X23	Y23	Z23	X24	Y24	Z24	X25	Y25	Z25	X26	Y26	Z26	X27	Y27	Z27	X28	Y28	Z28	X29	Y29	Z29	X30	Y30	Z30	X31	Y31	Z31	X32	Y32	Z32	X33	Y33	Z33	X34	Y34	Z34	X35	Y35	Z35	X36	Y36	Z36	X37	Y37	Z37	X38	Y38	Z38	X39	Y39	Z39	X40	Y40	Z40	X41	Y41	Z41	X42	Y42	Z42	X43	Y43	Z43	X44	Y44	Z44	X45	Y45	Z45	X46	Y46	Z46	X47	Y47	Z47

85	1.40000	-110.43185	756.41901	144.79666	57.11349	757.90466	142.87772	-184.68253	425.74017	-80.24208	126.01736	426.75131	-83.16165	-177.35837	74.15836	51.38029	124.72089	75.95264	50.72809	-194.34370	28.91875	-70.39066	141.42996	28.95636	-70.41415	171.88757	427.42712	-74.45192	-230.28209	426.21750	-70.19996	167.20258	76.53142	77.63957	-219.20612	74.00195	79.27289	-164.66884	1246.59729	8.40614	-231.16666	1222.64014	-271.40442	-194.89880	1240.37610	-502.79645	-183.59111	1254.90271	-586.51874	102.51735	1241.70654	22.37436	161.42125	1221.44189	-259.42261	137.53448	1249.12842	-491.44647	139.47462	1267.91504	-575.06226	-27.50745	850.98010	142.41022	-28.67858	945.37665	106.76269	-29.35803	1019.49524	104.24425	-30.30120	1111.70740	121.22729	-31.32409	1244.55444	92.07711	-28923081178180147754616411384381964288.00000	0.00000	-28923121742999355057957259278884536320.00000	19.48721	851.39685	141.87198	-28.02893	896.90613	132.43588	-27.06993	860.95935	188.33607	112.73936	800.72443	36.55804	-169.22856	798.22412	39.78749	10.66368	829.74542	175.51974	-64.52777	829.07867	176.38092	153.01831	603.94415	52.89587	-208.35553	602.39313	57.13084	164.95392	265.30493	-29.70812	-217.90488	209.63280	-12.34139	147.64113	28.04095	-144.00613	-202.34531	27.20189	-143.79520	129.91199	11.72717	98.70833	-178.09689	8.74860	98.01698	-47.10065	6.76107	9.15366	-47.42664	7.63540	8.98282	-50.10225	-0.27632	-0.28463	-49.98776	-0.47370	-0.68698	-15.11600	-5.68120	7.65843	-15.76805	-5.74242	4.99380
86	1.41667	-109.84327	748.18622	149.29155	57.70322	749.93604	147.72528	-186.42166	423.87338	-84.07739	126.82879	425.13971	-87.29201	-176.97490	73.93344	51.71918	124.09546	75.74255	50.19284	-194.18663	29.17371	-70.19722	141.27350	29.35781	-71.11939	172.67725	425.51947	-78.45070	-231.97412	424.26340	-73.82000	166.51118	76.17860	77.21085	-218.69907	73.61954	79.79499	-165.14748	1235.15869	5.93706	-230.57236	1212.25415	-274.21436	-193.86292	1230.51526	-505.49591	-182.51598	1245.09998	-589.20276	102.13014	1230.83447	20.41630	160.91763	1211.66418	-261.48151	137.38297	1239.41016	-493.53421	139.96234	1258.21729	-577.12811	-27.07046	842.86243	146.28532	-28.35016	936.52698	109.54970	-29.21214	1010.30774	106.01913	-30.48015	1102.49036	121.52036	-31.88980	1234.49536	90.02761	-28923081178180147754616411384381964288.00000	0.00000	-28923121742999355057957259278884536320.00000	19.92452	843.35321	145.84601	-27.64608	888.70148	135.92140	-26.75021	853.23071	192.12589	113.49126	791.94757	41.16836	-168.47861	789.00269	43.80428	11.06305	821.97260	179.65656	-64.12891	821.18732	180.35947	153.67218	598.43597	53.72517	-208.77426	596.91968	58.02596	165.12463	264.13202	-32.08110	-218.39517	208.45467	-13.44373	147.65559	28.93019	-144.70123	-202.48714	27.82212	-143.57620	129.38617	11.31677	97.89285	-177.08525	8.29510	98.03936	-49.17156	6.67188	9.26624	-49.50803	8.09867	9.09748	-52.27410	0.01767	-0.22447	-52.24338	-0.45542	-0.70913	-15.99993	-5.67425	7.87132	-16.72004	-5.74720	4.66945
87	1.43333	-109.74937	739.59869	155.17058	57.78862	741.32104	152.84764	-188.48077	422.68747	-87.46660	127.87779	423.21265	-90.87085	-176.54915	73.99786	51.31793	124.10989	75.21408	50.09290	-194.29124	29.84462	-70.74354	141.48755	29.15244	-71.31396	173.73798	423.54538	-82.08874	-233.94997	422.79233	-76.83950	166.53488	75.55356	77.09775	-218.07759	73.47813	79.67944	-165.41452	1223.99084	3.62328	-229.77547	1202.04126	-276.85083	-192.97453	1220.42798	-508.10788	-181.48930	1235.09216	-591.78198	102.08710	1219.72607	17.76932	160.97954	1201.23840	-264.15219	137.56444	1229.66345	-496.13483	139.77490	1248.40222	-579.75470	-26.99318	834.22119	150.48494	-28.43865	927.12817	112.37521	-29.34483	1000.65350	107.70667	-30.64880	1092.89087	121.70104	-32.17636	1224.14417	87.97536	-28923081178180147754616411384381964288.00000	0.00000	-28923121742999355057957259278884536320.00000	19.99941	834.70435	149.83339	-27.61541	879.91156	139.48656	-26.47283	845.22656	196.17491	113.10909	781.84344	45.47337	-168.84645	778.94470	49.38271	11.28644	813.79669	183.97670	-63.90171	813.02368	185.01920	154.23068	592.78625	54.69131	-209.54291	591.28571	60.07675	165.69456	262.64691	-34.06559	-219.01202	207.75887	-14.73285	147.83266	29.00941	-144.90009	-203.07677	28.96076	-144.07318	129.74483	10.72411	97.66660	-175.90207	8.08745	97.24575	-51.54972	6.99964	9.25761	-52.09436	8.22253	9.22803	-54.41804	-0.00478	-0.17340	-54.52401	-0.22754	-0.72006	-16.72374	-5.67110	8.20713	-17.54601	-5.74956	4.35768
88	1.45000	-109.97878	731.58319	158.69429	57.55836	733.12213	156.18922	-190.20963	420.89261	-91.38272	128.89035	421.25641	-95.11874	-176.40637	73.96619	51.58392	123.57734	74.99158	50.00336	-194.02551	29.86901	-70.51560	141.57211	28.71886	-71.23328	174.73250	421.48254	-86.23960	-235.65959	420.89325	-80.67323	165.93449	75.32183	77.11459	-217.88091	73.34845	80.02223	-165.79913	1213.03931	2.47746	-227.79120	1191.62964	-278.57144	-192.25938	1210.36365	-509.99905	-181.24538	1225.33154	-593.68274	101.82509	1209.03540	14.98694	160.99881	1190.61267	-266.87994	137.56873	1219.48169	-498.80627	139.64020	1238.31287	-582.40894	-27.13281	826.09064	153.32326	-28.53717	918.37567	114.41632	-29.38954	991.57751	108.99530	-30.59004	1083.71655	121.86679	-32.15270	1214.22034	86.37257	-28923081178180147754616411384381964288.00000	0.00000	-28923121742999355057957259278884536320.00000	19.85954	826.52228	152.62062	-27.72062	871.71088	142.03558	-26.55446	837.38538	198.94185	112.80888	772.90607	48.50330	-169.14522	770.31622	52.71915	11.16077	805.84064	186.90491	-64.02699	805.15002	188.02913	154.55014	587.26978	54.61156	-210.44142	585.94672	60.22810	166.01495	261.25833	-36.29125	-219.60922	206.71976	-16.00164	148.09630	28.53054	-144.80367	-202.92760	29.12897	-143.83276	129.49870	10.66607	97.76456	-175.17310	7.99100	97.40662	-53.36216	7.29354	9.26670	-53.86130	8.32641	9.17875	-56.53730	0.05580	-0.13094	-56.65156	-0.20171	-0.71484	-17.30876	-5.66215	8.66088	-18.30678	-5.74995	4.01743
